<?xml version="1.0" standalone="no"?>
<!DOCTYPE svg PUBLIC "-//W3C//DTD SVG 20010904//EN"
 "http://www.w3.org/TR/2001/REC-SVG-20010904/DTD/svg10.dtd">
<svg version="1.0" xmlns="http://www.w3.org/2000/svg"
 width="2556.000000pt" height="482.000000pt" viewBox="0 0 2556.000000 482.000000"
 preserveAspectRatio="xMidYMid meet">

<g transform="translate(0.000000,482.000000) scale(0.100000,-0.100000)"
fill="#000000" stroke="none">
<path d="M10083 4405 c-144 -44 -225 -146 -239 -299 -13 -150 55 -282 178
-345 59 -30 78 -35 166 -39 118 -5 184 11 255 63 100 74 142 172 135 310 -6
115 -62 210 -159 271 -79 49 -243 69 -336 39z"/>
<path d="M23046 4329 c-3 -34 -6 -124 -6 -200 0 -160 -14 -144 132 -153 47 -3
104 -12 125 -19 l38 -12 2 -1345 2 -1345 28 -17 c39 -24 215 -92 288 -112 255
-67 442 -91 655 -83 245 9 434 67 615 188 252 168 393 429 456 844 9 58 14
176 14 330 0 211 -3 253 -23 348 -58 277 -185 482 -381 616 -89 60 -169 97
-281 127 -91 25 -348 26 -440 1 -81 -22 -233 -95 -294 -142 -25 -19 -51 -35
-56 -35 -6 0 -11 192 -12 533 l-3 532 -426 3 -426 2 -7 -61z m1454 -1323 c140
-57 212 -156 256 -351 25 -110 31 -502 10 -632 -17 -107 -59 -237 -100 -307
-35 -59 -117 -133 -184 -164 -50 -24 -72 -27 -185 -30 -134 -4 -214 6 -322 39
l-66 20 3 607 c3 678 -3 620 82 710 52 55 135 104 216 128 69 21 214 10 290
-20z"/>
<path d="M524 4216 c-3 -8 -4 -112 -2 -232 2 -180 6 -218 18 -225 8 -4 69 -13
135 -21 l120 -13 -1 -80 c-1 -94 -20 -482 -34 -710 -29 -450 -41 -648 -55
-940 -22 -428 -17 -398 -64 -412 -22 -7 -72 -17 -113 -23 -40 -6 -83 -13 -96
-16 l-22 -4 2 -221 3 -221 593 0 593 0 2 228 1 229 -55 2 c-83 3 -279 26 -283
32 -2 3 2 125 10 271 7 146 16 364 19 485 4 121 13 346 21 499 8 154 14 295
14 313 0 52 17 39 39 -29 10 -35 29 -85 41 -113 11 -27 43 -112 69 -190 27
-77 58 -163 69 -190 25 -61 79 -209 122 -330 17 -49 35 -99 40 -110 23 -51
170 -436 225 -585 13 -36 36 -97 50 -137 14 -39 31 -73 38 -76 7 -2 118 -3
247 -1 181 2 237 6 242 16 4 7 26 63 48 123 23 61 78 202 122 315 115 295 120
307 193 505 78 212 99 266 152 400 22 55 55 138 72 185 18 47 36 94 41 105 5
11 18 44 28 74 10 30 23 56 28 58 7 2 13 -89 18 -279 11 -452 24 -809 36
-1008 6 -102 10 -214 8 -250 l-3 -65 -145 -36 -145 -35 -3 -202 -2 -202 407
-2 c488 -2 784 0 790 5 5 6 7 447 2 451 -2 1 -65 7 -140 13 -75 5 -141 13
-147 17 -8 5 -12 40 -12 99 0 51 -7 250 -15 442 -8 193 -19 476 -25 630 -6
154 -18 402 -25 551 -8 149 -15 303 -15 343 l0 72 44 19 c27 12 81 23 142 27
l99 8 -2 210 c-1 116 -2 218 -3 228 0 16 -30 17 -489 17 -379 0 -491 -3 -498
-12 -5 -7 -45 -110 -87 -228 -43 -118 -91 -246 -106 -285 -15 -38 -54 -140
-85 -225 -32 -85 -71 -191 -87 -235 -17 -44 -52 -141 -78 -215 -45 -130 -74
-207 -125 -335 -13 -33 -45 -118 -70 -190 -25 -71 -53 -143 -61 -160 -8 -16
-27 -64 -42 -106 -15 -42 -31 -77 -37 -78 -5 -2 -20 30 -32 71 -23 76 -88 262
-143 408 -17 47 -36 96 -40 110 -12 36 -54 145 -80 210 -12 30 -39 105 -60
165 -21 61 -62 171 -90 245 -28 74 -62 164 -74 200 -13 36 -45 119 -71 185
-26 66 -64 172 -86 235 -21 63 -50 142 -63 175 l-25 60 -501 3 c-428 2 -501 0
-506 -12z"/>
<path d="M17545 4220 l-310 -5 -3 -224 c-2 -173 1 -226 10 -233 7 -4 52 -8 99
-8 47 0 107 -3 133 -6 l46 -7 0 -1069 c0 -649 -4 -1076 -9 -1087 -10 -18 -101
-42 -221 -59 l-55 -7 0 -209 0 -210 580 2 c319 1 586 2 593 2 11 0 13 40 9
218 l-5 217 -23 3 c-13 1 -76 6 -139 10 l-115 7 -3 428 -2 427 600 2 c330 1
615 2 633 2 l32 1 3 -400 c1 -220 0 -410 -3 -422 -7 -28 -67 -50 -175 -63 -46
-5 -90 -10 -97 -10 -11 0 -13 -43 -11 -210 l3 -210 450 -1 c248 0 507 0 578 0
l127 1 0 209 c0 155 -3 211 -12 218 -7 6 -67 13 -132 17 -66 4 -123 9 -128 12
-4 3 -8 481 -8 1063 0 1037 0 1059 20 1083 28 37 64 48 176 56 l99 7 3 220 c1
121 -1 225 -5 230 -5 7 -209 9 -585 7 l-578 -2 0 -221 c0 -167 3 -221 13 -224
6 -2 67 -8 134 -13 68 -5 126 -12 130 -16 8 -7 5 -777 -3 -785 -2 -2 -286 -4
-631 -4 l-628 0 -3 363 c-3 405 -4 397 64 418 35 10 187 32 221 32 11 0 13 46
11 225 l-3 225 -285 2 c-157 2 -424 1 -595 -2z"/>
<path d="M11596 3962 c-3 -3 -6 -14 -6 -24 0 -30 -45 -149 -92 -245 -59 -121
-159 -227 -264 -278 -41 -20 -92 -39 -114 -42 -22 -3 -45 -11 -50 -19 -11 -12
-29 -138 -45 -296 l-7 -67 164 -3 163 -3 3 -720 c2 -678 4 -724 22 -792 30
-110 62 -173 121 -237 84 -92 141 -124 309 -172 76 -21 330 -30 440 -15 156
23 393 113 423 162 7 11 -6 49 -45 140 -97 221 -102 230 -118 223 -121 -53
-189 -69 -285 -69 -83 0 -107 4 -140 21 -57 31 -94 71 -121 129 l-22 50 -4
640 -3 640 283 1 c156 1 287 5 292 10 16 18 40 437 26 452 -4 4 -141 7 -304 7
l-297 0 -3 250 c-2 184 -6 251 -15 257 -14 9 -302 9 -311 0z"/>
<path d="M8330 3521 c-222 -40 -348 -94 -478 -209 -35 -30 -82 -79 -103 -109
-22 -29 -43 -53 -48 -53 -4 0 -6 70 -3 155 l5 155 -402 0 -401 0 0 -220 0
-220 23 -4 c12 -3 64 -7 116 -10 69 -4 98 -9 112 -22 18 -16 19 -43 19 -723 0
-388 -4 -711 -8 -718 -12 -20 -63 -34 -149 -43 -46 -5 -87 -12 -93 -15 -16
-10 -13 -385 3 -385 6 0 251 -2 544 -4 411 -4 533 -3 540 7 8 11 9 102 5 315
l-2 92 -118 0 c-77 0 -122 4 -130 12 -18 18 -6 1112 14 1191 50 208 312 348
547 293 128 -30 187 -86 225 -211 22 -70 31 -1236 10 -1252 -18 -13 -123 -41
-183 -48 -27 -3 -53 -9 -57 -13 -5 -5 -11 -265 -8 -372 0 -13 69 -15 558 -15
l557 0 0 205 0 205 -115 5 c-63 3 -121 9 -127 13 -10 6 -13 155 -13 685 -1
607 -3 687 -19 773 -49 265 -221 455 -468 520 -86 22 -278 33 -353 20z"/>
<path d="M5405 3514 c-70 -7 -187 -35 -280 -66 -176 -58 -288 -128 -420 -263
-72 -72 -100 -110 -137 -181 -127 -249 -168 -427 -168 -739 0 -256 29 -435 95
-590 7 -16 24 -57 38 -91 37 -89 90 -167 176 -257 156 -163 323 -243 581 -278
160 -22 419 4 585 58 182 59 388 211 489 363 59 88 148 291 175 401 41 168 46
219 46 464 0 266 -11 352 -67 520 -118 355 -338 555 -698 636 -83 19 -326 32
-415 23z m250 -479 c122 -37 208 -133 260 -290 43 -127 57 -246 57 -475 0
-184 -3 -218 -26 -330 -42 -192 -98 -295 -203 -373 -72 -53 -144 -70 -272 -65
-95 3 -113 7 -174 37 -139 67 -222 229 -259 506 -17 129 -15 390 5 505 51 298
145 432 340 485 70 19 210 19 272 0z"/>
<path d="M13735 3506 c-132 -19 -247 -50 -335 -89 -121 -54 -287 -171 -357
-250 -84 -96 -180 -274 -227 -422 -77 -245 -85 -652 -16 -915 63 -244 152
-403 305 -549 100 -94 235 -166 390 -209 93 -25 114 -27 295 -27 216 0 287 11
435 68 119 45 172 73 250 132 134 101 223 210 300 370 148 306 189 806 95
1160 -104 391 -343 626 -727 716 -111 25 -289 32 -408 15z m310 -498 c138 -72
221 -228 255 -481 13 -100 13 -408 0 -514 -11 -87 -54 -233 -90 -303 -35 -69
-115 -146 -186 -180 -60 -28 -71 -30 -187 -30 -118 0 -125 1 -192 33 -142 69
-214 202 -256 478 -44 290 -4 654 91 838 35 68 116 130 217 166 59 21 83 24
183 22 101 -3 121 -6 165 -29z"/>
<path d="M16480 3501 c-112 -25 -165 -49 -253 -114 -87 -64 -168 -152 -209
-224 -16 -29 -35 -56 -40 -59 -8 -5 -10 49 -7 172 l4 179 -395 0 -395 0 -3
-222 c-1 -123 -1 -223 0 -224 2 0 44 -2 93 -5 125 -6 149 -11 172 -37 20 -21
21 -35 24 -502 1 -264 2 -580 1 -702 -2 -262 12 -239 -156 -259 -64 -8 -113
-19 -118 -26 -10 -16 -11 -365 0 -371 4 -3 287 -8 630 -11 l622 -6 -2 213 -3
212 -183 -4 -183 -3 3 584 3 583 33 67 c52 106 156 188 276 217 50 12 171 6
197 -10 11 -6 15 -46 19 -156 l5 -148 115 2 c152 3 294 13 308 22 13 8 21 738
9 758 -4 6 -17 13 -29 16 -13 2 -77 19 -143 36 -158 41 -278 48 -395 22z"/>
<path d="M9697 3453 c-4 -3 -7 -104 -7 -224 0 -254 -16 -226 135 -231 67 -3
97 -8 118 -22 l27 -18 -2 -707 -3 -706 -35 -17 c-19 -9 -78 -23 -130 -30 l-95
-13 -3 -184 c-1 -102 1 -188 5 -192 5 -4 258 -9 563 -10 l555 -3 3 193 c2 134
-1 198 -9 207 -9 11 -41 14 -130 14 -83 0 -120 4 -126 13 -4 6 -8 444 -8 972
l0 960 -426 3 c-234 1 -429 -1 -432 -5z"/>
<path d="M20482 3233 l3 -228 121 -3 c100 -2 124 -6 137 -20 13 -15 16 -97 20
-637 4 -479 9 -640 20 -710 28 -169 86 -305 172 -402 64 -71 118 -107 230
-151 98 -38 173 -52 284 -52 116 0 197 14 315 55 164 57 289 143 381 263 27
34 51 64 54 66 3 2 4 -70 2 -160 l-3 -164 395 0 c368 0 396 1 401 18 2 9 2
105 -2 212 l-7 195 -98 7 c-117 8 -164 22 -172 49 -4 12 -5 440 -3 952 l3 932
-419 3 c-246 1 -423 -2 -430 -7 -8 -6 -10 -77 -8 -230 l3 -221 128 0 129 0 7
-137 c12 -213 -3 -892 -21 -981 -29 -143 -104 -252 -208 -302 -147 -70 -377
-61 -459 18 -103 98 -106 137 -107 1190 l0 672 -435 0 -435 0 2 -227z"/>
</g>
</svg>
